<svg xmlns="http://www.w3.org/2000/svg" width="1258" height="286" style=""><rect id="backgroundrect" width="100%" height="100%" x="0" y="0" fill="none" stroke="none" class="" style=""/>
    
    
<g class="currentLayer" style=""><title>Layer 1</title><g class=""><path fill="#e20e5a" d="M580.3876756853548,0 h23.922789515486308 v284.47317097763073 h-23.922789515486308 z" id="svg_1" class=""/><path fill="#31006f" d="M-3.86008650821168e-7,1.0401212832820192 c2.080242566564028,-0.5200606416410084 4.160485133128056,-0.5200606416410084 6.7607883413330905,-1.040121283282016 h7.280848982974095 s4.160485133128056,0 6.7607883413330905,0.5200606416410084 c2.6003032082050352,0 4.680545774769061,0.5200606416410084 6.7607883413330905,1.040121283282016 v87.89024843733013 c3.120363849846042,-5.720667058051076 8.32097026625611,-10.401212832820136 15.601819249230203,-14.561697965948188 c7.280848982974095,-4.160485133128056 15.601819249230203,-6.240727699692082 25.482971440409337,-6.240727699692082 c8.32097026625611,0 16.12187989087121,1.5601819249230218 23.402728873845305,4.160485133128056 s13.521576682666177,7.280848982974095 18.722183099076243,13.001516041025171 s9.361091549538122,13.001516041025171 11.961394757743154,22.362607590563293 c3.120363849846042,8.841030907897117 4.160485133128056,19.762304382358256 4.160485133128056,31.723699140101413 c0,24.44285015712732 -6.7607883413330905,43.685093897844574 -20.80242566564027,57.206670580510746 c-14.041637324307185,14.041637324307185 -33.80394170666544,20.80242566564027 -59.28691314707477,20.80242566564027 c-8.32097026625611,0 -16.64194053251222,-1.040121283282016 -24.962910798768323,-2.6003032082050352 c-8.841030907897117,-1.5601819249230218 -16.12187989087121,-3.120363849846042 -21.842546948922287,-5.200606416410068 V1.0401212832820192 zm27.56321400697336,189.82213419896746 c3.120363849846042,1.040121283282016 6.7607883413330905,2.080242566564028 10.921273474461143,2.6003032082050352 c3.6404244914870474,0.5200606416410084 7.800909624615102,0.5200606416410084 11.961394757743154,0.5200606416410084 c6.7607883413330905,0 13.001516041025171,-1.040121283282016 19.242243740717253,-3.120363849846042 c5.720667058051076,-2.080242566564028 10.921273474461143,-5.200606416410068 15.081758607589197,-9.881152191179128 c4.160485133128056,-4.160485133128056 7.800909624615102,-9.881152191179128 9.881152191179128,-16.64194053251222 c2.6003032082050352,-6.7607883413330905 3.6404244914870474,-14.561697965948188 3.6404244914870474,-23.922789515486308 c0,-15.601819249230203 -2.6003032082050352,-27.043153365332355 -7.800909624615102,-35.88418427322947 c-5.200606416410068,-8.32097026625611 -14.041637324307185,-13.001516041025171 -26.523092723691345,-13.001516041025171 c-4.160485133128056,0 -8.32097026625611,0.5200606416410084 -12.481455399384163,2.080242566564028 c-4.160485133128056,1.5601819249230218 -7.800909624615102,3.6404244914870474 -11.441334116102153,6.7607883413330905 c-3.6404244914870474,3.120363849846042 -6.240727699692082,7.280848982974095 -8.32097026625611,11.961394757743154 c-2.080242566564028,5.200606416410068 -3.120363849846042,11.441334116102153 -3.120363849846042,18.202122457435237 v60.32703443035679 zm197.10298318194154,-70.72824726317693 c0,-10.921273474461143 -2.6003032082050352,-18.722183099076243 -8.32097026625611,-22.882668232204303 c-5.720667058051076,-4.160485133128056 -13.521576682666177,-6.240727699692082 -23.922789515486308,-6.240727699692082 c-6.240727699692082,0 -12.481455399384163,0.5200606416410084 -18.202122457435237,1.5601819249230218 c-5.720667058051076,1.040121283282016 -10.921273474461143,2.6003032082050352 -16.64194053251222,4.160485133128056 c-3.6404244914870474,-6.240727699692082 -5.200606416410068,-13.521576682666177 -5.200606416410068,-21.842546948922287 c6.240727699692082,-2.080242566564028 13.001516041025171,-3.6404244914870474 20.80242566564027,-4.680545774769061 c7.800909624615102,-1.040121283282016 15.081758607589197,-1.5601819249230218 21.842546948922287,-1.5601819249230218 c18.722183099076243,0 32.76382042338343,4.160485133128056 42.124911972921545,12.481455399384163 c9.361091549538122,8.32097026625611 14.561697965948188,21.842546948922287 14.561697965948188,40.56473004799853 v88.93036972061216 c-6.240727699692082,1.5601819249230218 -14.561697965948188,3.120363849846042 -23.402728873845305,4.680545774769061 s-18.722183099076243,2.6003032082050352 -28.08327464861437,2.6003032082050352 c-8.841030907897117,0 -17.16200117415322,-1.040121283282016 -24.44285015712732,-2.6003032082050352 c-7.280848982974095,-1.5601819249230218 -13.521576682666177,-4.160485133128056 -18.722183099076243,-7.800909624615102 s-8.841030907897117,-8.32097026625611 -11.961394757743154,-14.041637324307185 c-2.6003032082050352,-5.720667058051076 -4.160485133128056,-12.481455399384163 -4.160485133128056,-20.80242566564027 c0,-7.800909624615102 1.5601819249230218,-15.081758607589197 4.680545774769061,-20.80242566564027 c3.120363849846042,-6.240727699692082 7.800909624615102,-10.921273474461143 13.001516041025171,-15.081758607589197 c5.720667058051076,-4.160485133128056 11.961394757743154,-6.7607883413330905 19.242243740717253,-8.841030907897117 c7.280848982974095,-2.080242566564028 14.561697965948188,-3.120363849846042 22.882668232204303,-3.120363849846042 c5.720667058051076,0 10.921273474461143,0 14.561697965948188,0.5200606416410084 c3.6404244914870474,0.5200606416410084 6.7607883413330905,0.5200606416410084 9.361091549538122,1.040121283282016 v-6.240727699692082 zm0,27.043153365332355 c-2.6003032082050352,-0.5200606416410084 -6.240727699692082,-0.5200606416410084 -10.401212832820136,-1.040121283282016 c-4.680545774769061,-0.5200606416410084 -8.32097026625611,-0.5200606416410084 -10.921273474461143,-0.5200606416410084 c-11.441334116102153,0 -20.282365023999265,2.080242566564028 -26.00303208205034,6.240727699692082 c-6.240727699692082,4.160485133128056 -8.841030907897117,10.921273474461143 -8.841030907897117,19.242243740717253 c0,5.720667058051076 1.040121283282016,9.881152191179128 3.120363849846042,13.001516041025171 c2.080242566564028,3.120363849846042 4.680545774769061,5.720667058051076 7.800909624615102,7.280848982974095 c3.120363849846042,1.5601819249230218 6.240727699692082,2.6003032082050352 9.881152191179128,3.120363849846042 c3.6404244914870474,0.5200606416410084 7.280848982974095,0.5200606416410084 10.401212832820136,0.5200606416410084 c4.160485133128056,0 8.841030907897117,0 13.001516041025171,-0.5200606416410084 c4.680545774769061,-0.5200606416410084 8.32097026625611,-1.040121283282016 11.961394757743154,-2.080242566564028 v-45.24527582276758 zm147.6972222260459,42.124911972921545 c1.5601819249230218,2.6003032082050352 2.6003032082050352,5.720667058051076 3.6404244914870474,9.881152191179128 c1.040121283282016,3.6404244914870474 1.5601819249230218,7.800909624615102 2.080242566564028,11.961394757743154 c-10.921273474461143,4.160485133128056 -23.402728873845305,6.240727699692082 -37.44436619815249,6.240727699692082 c-23.922789515486308,0 -41.60485133128054,-6.7607883413330905 -53.56624608902371,-20.282365023999265 c-11.961394757743154,-13.521576682666177 -18.202122457435237,-31.723699140101413 -18.202122457435237,-54.08630673066471 c0,-10.401212832820136 1.5601819249230218,-20.282365023999265 4.680545774769061,-29.643456573537385 c3.120363849846042,-8.841030907897117 7.280848982974095,-17.16200117415322 13.001516041025171,-23.402728873845305 c5.720667058051076,-6.7607883413330905 13.001516041025171,-11.961394757743154 21.842546948922287,-15.601819249230203 c8.841030907897117,-3.6404244914870474 18.722183099076243,-5.720667058051076 30.163517215178395,-5.720667058051076 c7.800909624615102,0 14.561697965948188,0.5200606416410084 20.282365023999265,1.5601819249230218 c5.720667058051076,1.040121283282016 11.441334116102153,2.6003032082050352 17.16200117415322,4.680545774769061 c0,3.120363849846042 -0.5200606416410084,6.7607883413330905 -1.040121283282016,10.921273474461143 s-2.080242566564028,7.800909624615102 -3.6404244914870474,10.921273474461143 c-8.841030907897117,-3.120363849846042 -19.242243740717253,-4.680545774769061 -31.203638498460407,-4.680545774769061 c-14.041637324307185,0 -24.962910798768323,4.680545774769061 -31.723699140101413,14.041637324307185 c-7.280848982974095,9.361091549538122 -10.401212832820136,21.842546948922287 -10.401212832820136,37.44436619815249 c0,17.68206181579423 4.160485133128056,30.683577856819404 11.961394757743154,39.00454812307551 c7.800909624615102,8.32097026625611 18.722183099076243,12.481455399384163 32.76382042338343,12.481455399384163 c5.720667058051076,0 10.921273474461143,-0.5200606416410084 15.601819249230203,-1.040121283282016 c4.680545774769061,-1.5601819249230218 9.361091549538122,-2.6003032082050352 14.041637324307185,-4.680545774769061 m21.842546948922287,-117.53370501086754 c2.080242566564028,-0.5200606416410084 3.6404244914870474,-0.5200606416410084 5.720667058051076,-1.040121283282016 c2.080242566564028,0 4.160485133128056,-0.5200606416410084 5.720667058051076,-0.5200606416410084 c2.080242566564028,0 3.6404244914870474,0 5.720667058051076,0.5200606416410084 c2.080242566564028,0 4.160485133128056,0.5200606416410084 5.720667058051076,1.040121283282016 c0,0.5200606416410084 0.5200606416410084,1.5601819249230218 0.5200606416410084,3.6404244914870474 c0.5200606416410084,2.080242566564028 0.5200606416410084,4.160485133128056 1.040121283282016,6.240727699692082 s0.5200606416410084,4.160485133128056 1.040121283282016,6.240727699692082 c0.5200606416410084,2.080242566564028 0.5200606416410084,3.120363849846042 0.5200606416410084,3.6404244914870474 c2.080242566564028,-3.120363849846042 4.160485133128056,-5.720667058051076 6.7607883413330905,-8.841030907897117 c2.6003032082050352,-2.6003032082050352 5.720667058051076,-5.200606416410068 9.361091549538122,-7.280848982974095 s7.800909624615102,-4.160485133128056 11.961394757743154,-5.200606416410068 c4.680545774769061,-1.040121283282016 9.361091549538122,-2.080242566564028 15.081758607589197,-2.080242566564028 c8.32097026625611,0 16.12187989087121,1.5601819249230218 23.402728873845305,4.160485133128056 s13.001516041025171,7.280848982974095 18.202122457435237,13.001516041025171 s8.841030907897117,13.001516041025171 11.961394757743154,22.362607590563293 c3.120363849846042,8.841030907897117 4.160485133128056,19.762304382358256 4.160485133128056,31.723699140101413 c0,24.44285015712732 -6.7607883413330905,43.685093897844574 -19.762304382358256,57.206670580510746 c-13.001516041025171,14.041637324307185 -31.723699140101413,20.80242566564027 -56.16654929722874,20.80242566564027 c-4.160485133128056,0 -8.32097026625611,-0.5200606416410084 -12.481455399384163,-1.040121283282016 c-4.160485133128056,-0.5200606416410084 -7.800909624615102,-1.5601819249230218 -10.921273474461143,-2.080242566564028 v70.20818662153592 c-2.080242566564028,0.5200606416410084 -4.680545774769061,0.5200606416410084 -7.280848982974095,1.040121283282016 c-2.6003032082050352,0 -4.680545774769061,0.5200606416410084 -6.7607883413330905,0.5200606416410084 s-4.160485133128056,0 -6.7607883413330905,-0.5200606416410084 c-2.6003032082050352,0 -4.680545774769061,-0.5200606416410084 -6.7607883413330905,-1.040121283282016 V71.76836854645896 zM421.24911934320676,190.8622554822495 c3.6404244914870474,1.040121283282016 7.280848982974095,2.080242566564028 10.921273474461143,2.6003032082050352 c3.6404244914870474,0.5200606416410084 8.32097026625611,1.040121283282016 14.561697965948188,1.040121283282016 c6.7607883413330905,0 13.001516041025171,-1.040121283282016 18.202122457435237,-3.120363849846042 c5.720667058051076,-2.080242566564028 10.401212832820136,-5.200606416410068 14.041637324307185,-9.881152191179128 c4.160485133128056,-4.680545774769061 7.280848982974095,-9.881152191179128 9.361091549538122,-16.64194053251222 c2.080242566564028,-6.7607883413330905 3.6404244914870474,-14.561697965948188 3.6404244914870474,-23.922789515486308 c0,-14.561697965948188 -2.6003032082050352,-26.523092723691345 -8.32097026625611,-35.36412363158846 c-5.200606416410068,-8.841030907897117 -14.561697965948188,-13.001516041025171 -27.043153365332355,-13.001516041025171 c-4.680545774769061,0 -8.841030907897117,1.040121283282016 -13.521576682666177,2.6003032082050352 c-4.160485133128056,1.5601819249230218 -7.800909624615102,4.160485133128056 -11.441334116102153,7.280848982974095 c-3.120363849846042,3.120363849846042 -6.240727699692082,7.800909624615102 -7.800909624615102,12.481455399384163 c-2.080242566564028,5.200606416410068 -3.120363849846042,10.921273474461143 -3.120363849846042,18.202122457435237 v57.72673122215176 zm284.9932316192717,-73.32855047138196 l-3.120363849846042,1.5601819249230218 c-1.040121283282016,0.5200606416410084 -2.6003032082050352,1.040121283282016 -4.160485133128056,1.5601819249230218 c-1.5601819249230218,0.5200606416410084 -3.120363849846042,1.040121283282016 -5.200606416410068,1.040121283282016 c-2.080242566564028,0.5200606416410084 -4.160485133128056,0.5200606416410084 -6.240727699692082,0.5200606416410084 c-4.160485133128056,0 -7.800909624615102,-0.5200606416410084 -10.401212832820136,-2.080242566564028 c-3.120363849846042,-1.5601819249230218 -5.720667058051076,-3.120363849846042 -7.800909624615102,-5.720667058051076 c-2.080242566564028,-2.6003032082050352 -3.6404244914870474,-5.200606416410068 -4.680545774769061,-8.32097026625611 c-1.040121283282016,-3.120363849846042 -1.5601819249230218,-6.240727699692082 -1.5601819249230218,-9.881152191179128 s0.5200606416410084,-6.7607883413330905 1.5601819249230218,-10.401212832820136 c1.040121283282016,-3.120363849846042 2.080242566564028,-6.240727699692082 4.160485133128056,-8.841030907897117 s4.160485133128056,-4.680545774769061 7.280848982974095,-6.240727699692082 c2.6003032082050352,-1.5601819249230218 6.240727699692082,-2.080242566564028 9.881152191179128,-2.080242566564028 c2.6003032082050352,0 5.200606416410068,0.5200606416410084 7.280848982974095,1.5601819249230218 c2.080242566564028,1.040121283282016 3.6404244914870474,2.080242566564028 4.680545774769061,4.160485133128056 v-3.6404244914870474 c1.5601819249230218,-0.5200606416410084 2.6003032082050352,-1.040121283282016 4.160485133128056,-1.040121283282016 c1.5601819249230218,0 3.120363849846042,0.5200606416410084 4.680545774769061,1.040121283282016 v20.282365023999265 c-1.5601819249230218,0.5200606416410084 -3.120363849846042,1.040121283282016 -4.680545774769061,1.040121283282016 c-1.5601819249230218,0 -3.120363849846042,-0.5200606416410084 -4.680545774769061,-1.040121283282016 V88.41030907897115 c0,-3.120363849846042 -1.040121283282016,-5.720667058051076 -2.6003032082050352,-7.280848982974095 c-2.080242566564028,-1.5601819249230218 -4.160485133128056,-2.6003032082050352 -6.7607883413330905,-2.6003032082050352 c-2.080242566564028,0 -4.160485133128056,0.5200606416410084 -5.720667058051076,1.5601819249230218 c-1.5601819249230218,1.040121283282016 -2.6003032082050352,2.6003032082050352 -3.6404244914870474,4.160485133128056 s-1.5601819249230218,3.6404244914870474 -2.080242566564028,5.720667058051076 c-0.5200606416410084,2.080242566564028 -0.5200606416410084,4.160485133128056 -0.5200606416410084,6.240727699692082 c0,5.200606416410068 1.5601819249230218,9.361091549538122 3.6404244914870474,11.961394757743154 c2.6003032082050352,3.120363849846042 5.720667058051076,4.160485133128056 9.881152191179128,4.160485133128056 c1.5601819249230218,0 3.6404244914870474,0 5.200606416410068,-0.5200606416410084 c1.5601819249230218,-0.5200606416410084 3.120363849846042,-1.040121283282016 4.160485133128056,-1.5601819249230218 c1.040121283282016,-0.5200606416410084 2.6003032082050352,-1.5601819249230218 3.6404244914870474,-2.080242566564028 c1.040121283282016,-1.040121283282016 2.6003032082050352,-2.080242566564028 3.6404244914870474,-3.120363849846042 v12.481455399384163 zm30.683577856819404,5.200606416410068 c-4.160485133128056,0 -7.800909624615102,-0.5200606416410084 -10.921273474461143,-2.080242566564028 c-3.120363849846042,-1.5601819249230218 -5.720667058051076,-3.6404244914870474 -7.800909624615102,-6.240727699692082 s-3.6404244914870474,-5.200606416410068 -4.680545774769061,-8.32097026625611 c-1.040121283282016,-3.120363849846042 -1.5601819249230218,-6.240727699692082 -1.5601819249230218,-9.881152191179128 c0,-3.120363849846042 0.5200606416410084,-6.240727699692082 1.5601819249230218,-9.881152191179128 s2.6003032082050352,-6.240727699692082 4.680545774769061,-8.32097026625611 c2.080242566564028,-2.6003032082050352 4.680545774769061,-4.680545774769061 7.800909624615102,-6.240727699692082 c3.120363849846042,-1.5601819249230218 6.7607883413330905,-2.080242566564028 10.921273474461143,-2.080242566564028 s7.800909624615102,1.040121283282016 10.921273474461143,2.080242566564028 c3.120363849846042,1.5601819249230218 5.720667058051076,3.6404244914870474 7.800909624615102,6.240727699692082 c2.080242566564028,2.6003032082050352 3.6404244914870474,5.200606416410068 4.680545774769061,8.32097026625611 c1.040121283282016,3.120363849846042 1.5601819249230218,6.240727699692082 1.5601819249230218,9.881152191179128 c0,3.120363849846042 -0.5200606416410084,6.240727699692082 -1.5601819249230218,9.881152191179128 c-1.040121283282016,3.120363849846042 -2.6003032082050352,6.240727699692082 -4.680545774769061,8.32097026625611 s-4.680545774769061,4.680545774769061 -7.800909624615102,6.240727699692082 c-3.120363849846042,1.5601819249230218 -6.7607883413330905,2.080242566564028 -10.921273474461143,2.080242566564028 m0,-9.361091549538122 c2.6003032082050352,0 4.160485133128056,-0.5200606416410084 5.720667058051076,-1.5601819249230218 c1.5601819249230218,-1.040121283282016 2.6003032082050352,-2.6003032082050352 3.6404244914870474,-4.160485133128056 c1.040121283282016,-1.5601819249230218 1.5601819249230218,-3.6404244914870474 2.080242566564028,-5.720667058051076 c0.5200606416410084,-2.080242566564028 0.5200606416410084,-4.160485133128056 0.5200606416410084,-5.720667058051076 c0,-1.5601819249230218 0,-3.6404244914870474 -0.5200606416410084,-5.720667058051076 c-0.5200606416410084,-2.080242566564028 -1.040121283282016,-3.6404244914870474 -2.080242566564028,-5.720667058051076 c-1.040121283282016,-1.5601819249230218 -2.080242566564028,-3.120363849846042 -3.6404244914870474,-4.160485133128056 c-1.5601819249230218,-1.040121283282016 -3.6404244914870474,-1.5601819249230218 -5.720667058051076,-1.5601819249230218 c-2.6003032082050352,0 -4.160485133128056,0.5200606416410084 -5.720667058051076,1.5601819249230218 c-1.5601819249230218,1.040121283282016 -2.6003032082050352,2.6003032082050352 -3.6404244914870474,4.160485133128056 c-1.040121283282016,1.5601819249230218 -1.5601819249230218,3.6404244914870474 -2.080242566564028,5.720667058051076 s-0.5200606416410084,3.6404244914870474 -0.5200606416410084,5.720667058051076 c0,1.5601819249230218 0,3.6404244914870474 0.5200606416410084,5.720667058051076 c0.5200606416410084,2.080242566564028 1.040121283282016,4.160485133128056 2.080242566564028,5.720667058051076 s2.080242566564028,3.120363849846042 3.6404244914870474,4.160485133128056 c1.5601819249230218,1.040121283282016 3.120363849846042,1.5601819249230218 5.720667058051076,1.5601819249230218 m34.32400234830644,-34.32400234830644 h-5.720667058051076 c-0.5200606416410084,-1.5601819249230218 -0.5200606416410084,-2.6003032082050352 -0.5200606416410084,-4.160485133128056 s0.5200606416410084,-2.6003032082050352 0.5200606416410084,-4.160485133128056 h18.202122457435237 v32.24375978174242 c0,3.120363849846042 0.5200606416410084,5.720667058051076 1.5601819249230218,7.800909624615102 c1.040121283282016,1.5601819249230218 3.120363849846042,2.6003032082050352 6.240727699692082,2.6003032082050352 c1.040121283282016,0 2.080242566564028,0 3.6404244914870474,-0.5200606416410084 c1.040121283282016,-0.5200606416410084 2.080242566564028,-1.040121283282016 3.120363849846042,-2.080242566564028 s1.5601819249230218,-2.6003032082050352 2.6003032082050352,-4.160485133128056 s1.040121283282016,-4.160485133128056 1.040121283282016,-6.7607883413330905 v-20.282365023999265 h-5.720667058051076 c-0.5200606416410084,-1.5601819249230218 -1.040121283282016,-2.6003032082050352 -1.040121283282016,-4.160485133128056 s0,-2.6003032082050352 1.040121283282016,-4.160485133128056 h18.202122457435237 v42.124911972921545 h5.720667058051076 c0.5200606416410084,1.5601819249230218 0.5200606416410084,2.6003032082050352 0.5200606416410084,4.160485133128056 c0,1.5601819249230218 0,2.6003032082050352 -0.5200606416410084,4.160485133128056 h-16.64194053251222 l-0.5200606416410084,-5.720667058051076 c-1.040121283282016,1.5601819249230218 -3.120363849846042,3.6404244914870474 -5.200606416410068,4.680545774769061 c-2.6003032082050352,1.5601819249230218 -5.720667058051076,2.080242566564028 -9.361091549538122,2.080242566564028 c-5.720667058051076,0 -9.881152191179128,-1.5601819249230218 -12.481455399384163,-4.680545774769061 c-3.120363849846042,-3.120363849846042 -4.160485133128056,-7.800909624615102 -4.160485133128056,-13.521576682666177 v-25.482971440409337 zm58.24679186379275,33.80394170666544 v-33.80394170666544 h-5.720667058051076 c-0.5200606416410084,-1.5601819249230218 -0.5200606416410084,-2.6003032082050352 -0.5200606416410084,-4.160485133128056 s0.5200606416410084,-2.6003032082050352 0.5200606416410084,-4.160485133128056 h16.64194053251222 l0.5200606416410084,5.720667058051076 c1.040121283282016,-1.5601819249230218 3.120363849846042,-3.6404244914870474 5.200606416410068,-4.680545774769061 c2.6003032082050352,-1.5601819249230218 5.720667058051076,-2.080242566564028 9.361091549538122,-2.080242566564028 c5.720667058051076,0 9.881152191179128,1.5601819249230218 12.481455399384163,4.680545774769061 c3.120363849846042,3.120363849846042 4.160485133128056,7.800909624615102 4.160485133128056,13.521576682666177 v24.962910798768323 h5.720667058051076 c0.5200606416410084,1.5601819249230218 0.5200606416410084,2.6003032082050352 0.5200606416410084,4.160485133128056 s0,2.6003032082050352 -0.5200606416410084,4.160485133128056 h-23.402728873845305 c-0.5200606416410084,-1.5601819249230218 -0.5200606416410084,-2.6003032082050352 -0.5200606416410084,-4.160485133128056 s0,-2.6003032082050352 0.5200606416410084,-4.160485133128056 h5.200606416410068 v-23.922789515486308 c0,-3.120363849846042 -0.5200606416410084,-5.720667058051076 -1.5601819249230218,-7.800909624615102 c-1.040121283282016,-1.5601819249230218 -3.120363849846042,-2.6003032082050352 -6.240727699692082,-2.6003032082050352 c-1.040121283282016,0 -2.080242566564028,0 -3.6404244914870474,0.5200606416410084 c-1.040121283282016,0.5200606416410084 -2.080242566564028,1.040121283282016 -3.120363849846042,2.080242566564028 c-1.040121283282016,1.040121283282016 -1.5601819249230218,2.6003032082050352 -2.6003032082050352,4.160485133128056 c-0.5200606416410084,1.5601819249230218 -1.040121283282016,4.160485133128056 -1.040121283282016,6.7607883413330905 v20.80242566564027 h5.200606416410068 c0.5200606416410084,1.5601819249230218 1.040121283282016,2.6003032082050352 1.040121283282016,4.160485133128056 s-0.5200606416410084,2.6003032082050352 -1.040121283282016,4.160485133128056 h-23.402728873845305 c-0.5200606416410084,-1.5601819249230218 -0.5200606416410084,-2.6003032082050352 -0.5200606416410084,-4.160485133128056 s0.5200606416410084,-2.6003032082050352 0.5200606416410084,-4.160485133128056 h6.240727699692082 zm53.56624608902371,-9.361091549538122 c1.040121283282016,-0.5200606416410084 2.6003032082050352,-1.040121283282016 4.160485133128056,-1.040121283282016 h2.080242566564028 c0.5200606416410084,0 1.5601819249230218,0.5200606416410084 2.080242566564028,1.040121283282016 v1.5601819249230218 c0,1.040121283282016 0.5200606416410084,2.080242566564028 1.040121283282016,3.120363849846042 c0.5200606416410084,1.040121283282016 1.5601819249230218,2.080242566564028 3.120363849846042,2.6003032082050352 c1.040121283282016,1.040121283282016 2.6003032082050352,1.5601819249230218 4.160485133128056,2.080242566564028 c1.5601819249230218,0.5200606416410084 3.120363849846042,0.5200606416410084 5.200606416410068,0.5200606416410084 c1.040121283282016,0 2.6003032082050352,0 3.6404244914870474,-0.5200606416410084 c1.040121283282016,0 2.080242566564028,-0.5200606416410084 3.120363849846042,-1.040121283282016 c1.040121283282016,-0.5200606416410084 1.5601819249230218,-1.040121283282016 2.080242566564028,-1.5601819249230218 c0.5200606416410084,-0.5200606416410084 0.5200606416410084,-1.5601819249230218 0.5200606416410084,-2.6003032082050352 s0,-2.080242566564028 -0.5200606416410084,-2.6003032082050352 c-0.5200606416410084,-0.5200606416410084 -1.040121283282016,-1.5601819249230218 -2.080242566564028,-2.080242566564028 c-1.040121283282016,-0.5200606416410084 -2.080242566564028,-1.040121283282016 -3.6404244914870474,-1.5601819249230218 c-1.5601819249230218,-0.5200606416410084 -3.6404244914870474,-1.040121283282016 -6.240727699692082,-1.5601819249230218 c-2.080242566564028,-0.5200606416410084 -3.6404244914870474,-1.040121283282016 -5.720667058051076,-1.5601819249230218 c-2.080242566564028,-0.5200606416410084 -4.160485133128056,-1.5601819249230218 -5.720667058051076,-2.6003032082050352 c-1.5601819249230218,-1.040121283282016 -3.120363849846042,-2.6003032082050352 -4.680545774769061,-4.160485133128056 c-1.040121283282016,-1.5601819249230218 -1.5601819249230218,-3.6404244914870474 -1.5601819249230218,-6.7607883413330905 c0,-3.120363849846042 0.5200606416410084,-5.200606416410068 1.5601819249230218,-7.280848982974095 c1.040121283282016,-2.080242566564028 2.6003032082050352,-3.6404244914870474 4.680545774769061,-4.680545774769061 c2.080242566564028,-1.040121283282016 3.6404244914870474,-2.080242566564028 6.240727699692082,-2.6003032082050352 c2.080242566564028,-0.5200606416410084 4.160485133128056,-1.040121283282016 6.240727699692082,-1.040121283282016 c3.120363849846042,0 5.720667058051076,0.5200606416410084 7.800909624615102,1.5601819249230218 c2.080242566564028,1.040121283282016 3.6404244914870474,2.080242566564028 4.680545774769061,3.120363849846042 v-2.6003032082050352 c0.5200606416410084,-0.5200606416410084 1.5601819249230218,-0.5200606416410084 2.080242566564028,-0.5200606416410084 h2.080242566564028 c1.5601819249230218,0 2.6003032082050352,0.5200606416410084 4.160485133128056,1.040121283282016 v16.12187989087121 c-1.5601819249230218,0.5200606416410084 -2.6003032082050352,1.040121283282016 -4.160485133128056,1.040121283282016 c-1.5601819249230218,0 -2.6003032082050352,-0.5200606416410084 -4.160485133128056,-1.040121283282016 v-1.5601819249230218 c0,-2.080242566564028 -1.040121283282016,-4.160485133128056 -2.6003032082050352,-5.720667058051076 c-2.080242566564028,-1.5601819249230218 -4.160485133128056,-2.6003032082050352 -7.800909624615102,-2.6003032082050352 c-3.120363849846042,0 -5.200606416410068,0.5200606416410084 -6.7607883413330905,1.5601819249230218 c-1.5601819249230218,1.040121283282016 -2.080242566564028,2.6003032082050352 -2.080242566564028,4.160485133128056 c0,1.040121283282016 0,1.5601819249230218 0.5200606416410084,2.080242566564028 c0,0.5200606416410084 1.040121283282016,1.040121283282016 1.5601819249230218,1.5601819249230218 c1.040121283282016,0.5200606416410084 2.080242566564028,1.040121283282016 3.6404244914870474,1.5601819249230218 c1.5601819249230218,0.5200606416410084 3.6404244914870474,1.040121283282016 6.7607883413330905,1.5601819249230218 l6.240727699692082,1.5601819249230218 c2.080242566564028,0.5200606416410084 4.160485133128056,1.5601819249230218 5.720667058051076,2.6003032082050352 c1.5601819249230218,1.040121283282016 3.120363849846042,2.6003032082050352 4.160485133128056,4.680545774769061 c1.040121283282016,2.080242566564028 1.5601819249230218,4.680545774769061 1.5601819249230218,7.800909624615102 c0,2.6003032082050352 -0.5200606416410084,4.680545774769061 -1.5601819249230218,6.7607883413330905 c-1.040121283282016,2.080242566564028 -2.6003032082050352,3.6404244914870474 -4.160485133128056,4.680545774769061 c-1.5601819249230218,1.040121283282016 -3.6404244914870474,2.080242566564028 -6.240727699692082,2.6003032082050352 c-2.080242566564028,0.5200606416410084 -4.680545774769061,1.040121283282016 -7.280848982974095,1.040121283282016 c-2.080242566564028,0 -3.6404244914870474,0 -4.680545774769061,-0.5200606416410084 c-1.5601819249230218,0 -2.6003032082050352,-0.5200606416410084 -3.6404244914870474,-1.040121283282016 l-3.120363849846042,-1.5601819249230218 c-1.040121283282016,-0.5200606416410084 -2.080242566564028,-1.040121283282016 -3.120363849846042,-2.080242566564028 v2.6003032082050352 c-0.5200606416410084,0.5200606416410084 -1.5601819249230218,0.5200606416410084 -2.080242566564028,1.040121283282016 h-4.160485133128056 c-0.5200606416410084,0 -1.5601819249230218,-0.5200606416410084 -2.080242566564028,-1.040121283282016 v-16.12187989087121 zm91.01061228717619,15.081758607589197 c-2.080242566564028,1.040121283282016 -4.680545774769061,2.080242566564028 -7.800909624615102,3.120363849846042 c-3.120363849846042,1.040121283282016 -6.240727699692082,1.5601819249230218 -9.361091549538122,1.5601819249230218 c-4.680545774769061,0 -8.32097026625611,-0.5200606416410084 -11.961394757743154,-2.080242566564028 c-3.120363849846042,-1.5601819249230218 -6.240727699692082,-3.6404244914870474 -8.32097026625611,-6.240727699692082 c-2.080242566564028,-2.6003032082050352 -3.6404244914870474,-5.200606416410068 -4.680545774769061,-8.32097026625611 c-1.040121283282016,-3.120363849846042 -1.5601819249230218,-6.240727699692082 -1.5601819249230218,-9.881152191179128 c0,-3.120363849846042 0.5200606416410084,-6.7607883413330905 1.5601819249230218,-9.881152191179128 s2.080242566564028,-6.240727699692082 4.160485133128056,-8.32097026625611 c2.080242566564028,-2.6003032082050352 4.160485133128056,-4.680545774769061 7.280848982974095,-6.240727699692082 c3.120363849846042,-1.5601819249230218 6.240727699692082,-2.080242566564028 10.401212832820136,-2.080242566564028 s7.800909624615102,0.5200606416410084 10.921273474461143,2.080242566564028 c2.6003032082050352,1.5601819249230218 5.200606416410068,3.6404244914870474 6.7607883413330905,5.720667058051076 c1.5601819249230218,2.6003032082050352 3.120363849846042,5.200606416410068 3.6404244914870474,8.32097026625611 c0.5200606416410084,3.120363849846042 1.040121283282016,6.240727699692082 1.040121283282016,8.841030907897117 v4.680545774769061 h-32.24375978174242 c0,2.080242566564028 0.5200606416410084,3.6404244914870474 1.040121283282016,5.200606416410068 c0.5200606416410084,1.5601819249230218 1.5601819249230218,3.120363849846042 2.6003032082050352,4.160485133128056 c1.040121283282016,1.040121283282016 2.6003032082050352,2.080242566564028 4.160485133128056,3.120363849846042 c1.5601819249230218,0.5200606416410084 3.120363849846042,1.040121283282016 5.200606416410068,1.040121283282016 c3.120363849846042,0 6.240727699692082,-0.5200606416410084 8.841030907897117,-1.5601819249230218 c2.6003032082050352,-1.040121283282016 5.200606416410068,-2.080242566564028 8.32097026625611,-3.6404244914870474 v10.401212832820136 zm-10.401212832820136,-27.043153365332355 c0,-4.160485133128056 -1.040121283282016,-7.280848982974095 -2.6003032082050352,-9.361091549538122 c-1.5601819249230218,-2.080242566564028 -4.160485133128056,-3.120363849846042 -7.280848982974095,-3.120363849846042 c-3.120363849846042,0 -5.200606416410068,1.040121283282016 -6.7607883413330905,3.6404244914870474 c-1.5601819249230218,2.080242566564028 -2.6003032082050352,5.200606416410068 -3.120363849846042,9.361091549538122 h19.762304382358256 zm22.362607590563293,21.322486307281274 v-57.206670580510746 h-5.200606416410068 c-0.5200606416410084,-1.5601819249230218 -1.040121283282016,-2.6003032082050352 -1.040121283282016,-4.160485133128056 c0,-1.5601819249230218 0,-2.6003032082050352 1.040121283282016,-4.160485133128056 h17.68206181579423 v65.52764084676686 h5.200606416410068 c0.5200606416410084,1.5601819249230218 0.5200606416410084,2.6003032082050352 0.5200606416410084,4.160485133128056 s0,2.6003032082050352 -0.5200606416410084,4.160485133128056 h-23.402728873845305 c-0.5200606416410084,-1.5601819249230218 -1.040121283282016,-2.6003032082050352 -1.040121283282016,-4.160485133128056 s0,-2.6003032082050352 1.040121283282016,-4.160485133128056 h5.720667058051076 zm27.56321400697336,0 v-57.206670580510746 h-5.200606416410068 c-0.5200606416410084,-1.5601819249230218 -1.040121283282016,-2.6003032082050352 -1.040121283282016,-4.160485133128056 c0,-1.5601819249230218 0,-2.6003032082050352 1.040121283282016,-4.160485133128056 h17.68206181579423 v65.52764084676686 h5.200606416410068 c0.5200606416410084,1.5601819249230218 0.5200606416410084,2.6003032082050352 0.5200606416410084,4.160485133128056 s0,2.6003032082050352 -0.5200606416410084,4.160485133128056 h-23.402728873845305 c-0.5200606416410084,-1.5601819249230218 -1.040121283282016,-2.6003032082050352 -1.040121283282016,-4.160485133128056 s0,-2.6003032082050352 1.040121283282016,-4.160485133128056 h5.720667058051076 zm28.08327464861437,0 v-33.80394170666544 h-5.200606416410068 c-0.5200606416410084,-1.5601819249230218 -1.040121283282016,-2.6003032082050352 -1.040121283282016,-4.160485133128056 s0.5200606416410084,-2.6003032082050352 1.040121283282016,-4.160485133128056 h17.68206181579423 v42.124911972921545 h5.200606416410068 c0.5200606416410084,1.5601819249230218 1.040121283282016,2.6003032082050352 1.040121283282016,4.160485133128056 c0,1.5601819249230218 -0.5200606416410084,2.6003032082050352 -1.040121283282016,4.160485133128056 h-23.402728873845305 c-0.5200606416410084,-1.5601819249230218 -1.040121283282016,-2.6003032082050352 -1.040121283282016,-4.160485133128056 c0,-1.5601819249230218 0.5200606416410084,-2.6003032082050352 1.040121283282016,-4.160485133128056 h5.720667058051076 zm4.680545774769061,-48.88570031425464 c-2.080242566564028,0 -3.6404244914870474,-0.5200606416410084 -5.200606416410068,-2.080242566564028 c-1.5601819249230218,-1.5601819249230218 -2.080242566564028,-3.120363849846042 -2.080242566564028,-5.720667058051076 c0,-2.080242566564028 0.5200606416410084,-4.160485133128056 2.080242566564028,-5.720667058051076 c1.5601819249230218,-1.5601819249230218 3.120363849846042,-2.080242566564028 5.200606416410068,-2.080242566564028 s3.6404244914870474,0.5200606416410084 5.200606416410068,2.080242566564028 c1.5601819249230218,1.5601819249230218 2.080242566564028,3.120363849846042 2.080242566564028,5.720667058051076 c0,2.080242566564028 -0.5200606416410084,4.160485133128056 -2.080242566564028,5.720667058051076 c-1.5601819249230218,1.040121283282016 -3.120363849846042,2.080242566564028 -5.200606416410068,2.080242566564028 m22.882668232204303,48.88570031425464 v-33.80394170666544 h-5.720667058051076 c-0.5200606416410084,-1.5601819249230218 -1.040121283282016,-2.6003032082050352 -1.040121283282016,-4.160485133128056 s0,-2.6003032082050352 1.040121283282016,-4.160485133128056 h16.64194053251222 l0.5200606416410084,5.720667058051076 c1.040121283282016,-1.5601819249230218 3.120363849846042,-3.6404244914870474 5.200606416410068,-4.680545774769061 c2.6003032082050352,-1.5601819249230218 5.720667058051076,-2.080242566564028 9.361091549538122,-2.080242566564028 c5.720667058051076,0 9.881152191179128,1.5601819249230218 12.481455399384163,4.680545774769061 c3.120363849846042,3.120363849846042 4.160485133128056,7.800909624615102 4.160485133128056,13.521576682666177 v24.962910798768323 h5.720667058051076 c0.5200606416410084,1.5601819249230218 0.5200606416410084,2.6003032082050352 0.5200606416410084,4.160485133128056 s0,2.6003032082050352 -0.5200606416410084,4.160485133128056 h-23.402728873845305 c-0.5200606416410084,-1.5601819249230218 -0.5200606416410084,-2.6003032082050352 -0.5200606416410084,-4.160485133128056 s0,-2.6003032082050352 0.5200606416410084,-4.160485133128056 h5.200606416410068 v-23.922789515486308 c0,-3.120363849846042 -0.5200606416410084,-5.720667058051076 -1.5601819249230218,-7.800909624615102 c-1.040121283282016,-1.5601819249230218 -3.120363849846042,-2.6003032082050352 -6.240727699692082,-2.6003032082050352 c-1.040121283282016,0 -2.080242566564028,0 -3.6404244914870474,0.5200606416410084 c-1.040121283282016,0.5200606416410084 -2.080242566564028,1.040121283282016 -3.120363849846042,2.080242566564028 c-1.040121283282016,1.040121283282016 -1.5601819249230218,2.6003032082050352 -2.6003032082050352,4.160485133128056 c-0.5200606416410084,1.5601819249230218 -1.040121283282016,4.160485133128056 -1.040121283282016,6.7607883413330905 v20.80242566564027 h5.200606416410068 c0.5200606416410084,1.5601819249230218 1.040121283282016,2.6003032082050352 1.040121283282016,4.160485133128056 s-0.5200606416410084,2.6003032082050352 -1.040121283282016,4.160485133128056 h-23.402728873845305 c-0.5200606416410084,-1.5601819249230218 -1.040121283282016,-2.6003032082050352 -1.040121283282016,-4.160485133128056 s0,-2.6003032082050352 1.040121283282016,-4.160485133128056 h6.240727699692082 zm56.16654929722874,10.921273474461143 c1.040121283282016,0.5200606416410084 2.6003032082050352,1.5601819249230218 3.6404244914870474,2.080242566564028 c1.5601819249230218,0.5200606416410084 2.6003032082050352,1.040121283282016 4.160485133128056,2.080242566564028 l4.680545774769061,1.5601819249230218 c1.5601819249230218,0.5200606416410084 3.6404244914870474,0.5200606416410084 5.720667058051076,0.5200606416410084 c2.080242566564028,0 3.6404244914870474,0 5.200606416410068,-0.5200606416410084 c1.5601819249230218,-0.5200606416410084 3.120363849846042,-1.040121283282016 4.160485133128056,-2.080242566564028 c1.040121283282016,-1.040121283282016 2.080242566564028,-2.6003032082050352 2.6003032082050352,-4.680545774769061 c0.5200606416410084,-2.080242566564028 1.040121283282016,-4.680545774769061 1.040121283282016,-7.800909624615102 c-1.5601819249230218,2.6003032082050352 -3.6404244914870474,4.160485133128056 -5.720667058051076,5.200606416410068 c-2.080242566564028,1.040121283282016 -4.680545774769061,1.5601819249230218 -7.280848982974095,1.5601819249230218 c-4.160485133128056,0 -7.800909624615102,-1.040121283282016 -10.401212832820136,-2.6003032082050352 s-5.200606416410068,-3.6404244914870474 -6.7607883413330905,-6.240727699692082 c-1.5601819249230218,-2.6003032082050352 -2.6003032082050352,-5.200606416410068 -3.6404244914870474,-8.32097026625611 c-0.5200606416410084,-3.120363849846042 -1.040121283282016,-6.240727699692082 -1.040121283282016,-9.361091549538122 c0,-3.6404244914870474 0.5200606416410084,-7.280848982974095 1.5601819249230218,-10.401212832820136 c1.040121283282016,-3.120363849846042 2.6003032082050352,-5.720667058051076 4.160485133128056,-8.32097026625611 c2.080242566564028,-2.080242566564028 4.160485133128056,-4.160485133128056 6.7607883413330905,-5.200606416410068 c2.6003032082050352,-1.5601819249230218 5.720667058051076,-2.080242566564028 9.361091549538122,-2.080242566564028 c3.120363849846042,0 5.720667058051076,0.5200606416410084 8.32097026625611,2.080242566564028 c2.6003032082050352,1.5601819249230218 4.160485133128056,3.120363849846042 5.200606416410068,5.200606416410068 l0.5200606416410084,-5.720667058051076 h17.16200117415322 c0.5200606416410084,1.5601819249230218 1.040121283282016,2.6003032082050352 1.040121283282016,4.160485133128056 c0,1.5601819249230218 -0.5200606416410084,2.6003032082050352 -1.040121283282016,4.160485133128056 h-5.720667058051076 v34.32400234830644 c0,4.680545774769061 -0.5200606416410084,8.841030907897117 -1.5601819249230218,11.961394757743154 c-1.040121283282016,3.120363849846042 -2.6003032082050352,5.720667058051076 -5.200606416410068,7.800909624615102 c-2.080242566564028,2.080242566564028 -4.680545774769061,3.6404244914870474 -7.800909624615102,4.160485133128056 c-3.120363849846042,1.040121283282016 -6.240727699692082,1.040121283282016 -9.881152191179128,1.040121283282016 c-4.160485133128056,0 -7.800909624615102,-0.5200606416410084 -11.441334116102153,-1.5601819249230218 c-3.6404244914870474,-1.040121283282016 -6.240727699692082,-2.080242566564028 -8.32097026625611,-3.120363849846042 v-9.881152191179128 zm20.80242566564027,-11.441334116102153 c1.040121283282016,0 2.080242566564028,0 3.120363849846042,-0.5200606416410084 c1.040121283282016,-0.5200606416410084 2.6003032082050352,-1.5601819249230218 3.6404244914870474,-2.6003032082050352 c1.040121283282016,-1.040121283282016 2.080242566564028,-2.6003032082050352 3.120363849846042,-5.200606416410068 c1.040121283282016,-2.080242566564028 1.040121283282016,-4.680545774769061 1.040121283282016,-8.32097026625611 c0,-1.5601819249230218 0,-3.120363849846042 -0.5200606416410084,-5.200606416410068 c0,-2.080242566564028 -0.5200606416410084,-3.6404244914870474 -1.5601819249230218,-5.720667058051076 s-2.080242566564028,-3.120363849846042 -3.120363849846042,-4.680545774769061 s-3.6404244914870474,-2.080242566564028 -5.720667058051076,-2.080242566564028 c-2.6003032082050352,0 -4.680545774769061,0.5200606416410084 -6.240727699692082,2.080242566564028 c-1.5601819249230218,1.040121283282016 -2.6003032082050352,2.6003032082050352 -3.6404244914870474,4.680545774769061 c-1.040121283282016,1.5601819249230218 -1.040121283282016,3.6404244914870474 -1.5601819249230218,5.720667058051076 c0,2.080242566564028 -0.5200606416410084,3.6404244914870474 -0.5200606416410084,5.200606416410068 c0,2.080242566564028 0,4.160485133128056 0.5200606416410084,6.240727699692082 c0.5200606416410084,2.080242566564028 1.040121283282016,3.6404244914870474 2.080242566564028,5.200606416410068 c1.040121283282016,1.5601819249230218 2.080242566564028,2.6003032082050352 3.6404244914870474,3.120363849846042 c2.080242566564028,1.5601819249230218 3.6404244914870474,2.080242566564028 5.720667058051076,2.080242566564028 m-439.97130282829175,96.73127934522726 l-3.120363849846042,1.5601819249230218 c-1.040121283282016,0.5200606416410084 -2.6003032082050352,1.040121283282016 -4.160485133128056,1.5601819249230218 c-1.5601819249230218,0.5200606416410084 -3.120363849846042,1.040121283282016 -5.200606416410068,1.040121283282016 c-2.080242566564028,0.5200606416410084 -4.160485133128056,0.5200606416410084 -6.240727699692082,0.5200606416410084 c-4.160485133128056,0 -7.800909624615102,-0.5200606416410084 -10.401212832820136,-2.080242566564028 c-3.120363849846042,-1.5601819249230218 -5.720667058051076,-3.120363849846042 -7.800909624615102,-5.720667058051076 c-2.080242566564028,-2.6003032082050352 -3.6404244914870474,-5.200606416410068 -4.680545774769061,-8.32097026625611 c-1.040121283282016,-3.120363849846042 -1.5601819249230218,-6.240727699692082 -1.5601819249230218,-9.881152191179128 s0.5200606416410084,-6.7607883413330905 1.5601819249230218,-10.401212832820136 c1.040121283282016,-3.120363849846042 2.080242566564028,-6.240727699692082 4.160485133128056,-8.841030907897117 s4.160485133128056,-4.680545774769061 7.280848982974095,-6.240727699692082 c2.6003032082050352,-1.5601819249230218 6.240727699692082,-2.080242566564028 9.881152191179128,-2.080242566564028 c2.6003032082050352,0 5.200606416410068,0.5200606416410084 7.280848982974095,1.5601819249230218 c2.080242566564028,1.040121283282016 3.6404244914870474,2.080242566564028 4.680545774769061,4.160485133128056 v-3.6404244914870474 c1.5601819249230218,-0.5200606416410084 2.6003032082050352,-1.040121283282016 4.160485133128056,-1.040121283282016 c1.5601819249230218,0 3.120363849846042,0.5200606416410084 4.680545774769061,1.040121283282016 v20.282365023999265 c-1.5601819249230218,0.5200606416410084 -3.120363849846042,1.040121283282016 -4.680545774769061,1.040121283282016 c-1.5601819249230218,0 -3.120363849846042,-0.5200606416410084 -4.680545774769061,-1.040121283282016 v-3.120363849846042 c0,-3.120363849846042 -1.040121283282016,-5.720667058051076 -2.6003032082050352,-7.280848982974095 c-2.080242566564028,-1.5601819249230218 -4.160485133128056,-2.6003032082050352 -6.7607883413330905,-2.6003032082050352 c-2.080242566564028,0 -4.160485133128056,0.5200606416410084 -5.720667058051076,1.5601819249230218 c-1.5601819249230218,1.040121283282016 -2.6003032082050352,2.6003032082050352 -3.6404244914870474,4.160485133128056 s-1.5601819249230218,3.6404244914870474 -2.080242566564028,5.720667058051076 c-0.5200606416410084,2.080242566564028 -0.5200606416410084,4.160485133128056 -0.5200606416410084,6.240727699692082 c0,5.200606416410068 1.5601819249230218,9.361091549538122 3.6404244914870474,11.961394757743154 c2.6003032082050352,3.120363849846042 5.720667058051076,4.160485133128056 9.881152191179128,4.160485133128056 c1.5601819249230218,0 3.6404244914870474,0 5.200606416410068,-0.5200606416410084 c1.5601819249230218,-0.5200606416410084 3.120363849846042,-1.040121283282016 4.160485133128056,-1.5601819249230218 c1.040121283282016,-0.5200606416410084 2.6003032082050352,-1.5601819249230218 3.6404244914870474,-2.080242566564028 c1.040121283282016,-1.040121283282016 2.6003032082050352,-2.080242566564028 3.6404244914870474,-3.120363849846042 v13.001516041025171 zm10.921273474461143,-4.160485133128056 v-57.206670580510746 h-5.720667058051076 c-0.5200606416410084,-1.5601819249230218 -0.5200606416410084,-2.6003032082050352 -0.5200606416410084,-4.160485133128056 c0,-1.5601819249230218 0.5200606416410084,-2.6003032082050352 0.5200606416410084,-4.160485133128056 h18.202122457435237 v27.56321400697336 c1.5601819249230218,-1.5601819249230218 3.120363849846042,-2.6003032082050352 5.200606416410068,-3.6404244914870474 c2.080242566564028,-1.040121283282016 4.680545774769061,-1.5601819249230218 7.800909624615102,-1.5601819249230218 c5.720667058051076,0 9.881152191179128,1.5601819249230218 12.481455399384163,4.680545774769061 s4.160485133128056,7.800909624615102 4.160485133128056,13.521576682666177 v24.962910798768323 h5.720667058051076 c0.5200606416410084,1.5601819249230218 1.040121283282016,2.6003032082050352 1.040121283282016,4.160485133128056 s-0.5200606416410084,2.6003032082050352 -1.040121283282016,4.160485133128056 h-23.402728873845305 c-0.5200606416410084,-1.5601819249230218 -0.5200606416410084,-2.6003032082050352 -0.5200606416410084,-4.160485133128056 s0,-2.6003032082050352 0.5200606416410084,-4.160485133128056 h5.200606416410068 v-23.922789515486308 c0,-3.120363849846042 -0.5200606416410084,-5.720667058051076 -1.5601819249230218,-7.800909624615102 c-1.040121283282016,-1.5601819249230218 -3.120363849846042,-2.6003032082050352 -6.240727699692082,-2.6003032082050352 c-1.040121283282016,0 -2.080242566564028,0 -3.6404244914870474,0.5200606416410084 c-1.040121283282016,0.5200606416410084 -2.080242566564028,1.040121283282016 -3.120363849846042,2.080242566564028 c-1.040121283282016,1.040121283282016 -1.5601819249230218,2.6003032082050352 -2.6003032082050352,4.160485133128056 c-0.5200606416410084,1.5601819249230218 -1.040121283282016,4.160485133128056 -1.040121283282016,6.7607883413330905 v20.80242566564027 h5.200606416410068 c0.5200606416410084,1.5601819249230218 1.040121283282016,2.6003032082050352 1.040121283282016,4.160485133128056 s-0.5200606416410084,2.6003032082050352 -1.040121283282016,4.160485133128056 h-23.402728873845305 c-0.5200606416410084,-1.5601819249230218 -0.5200606416410084,-2.6003032082050352 -0.5200606416410084,-4.160485133128056 s0.5200606416410084,-2.6003032082050352 0.5200606416410084,-4.160485133128056 h6.7607883413330905 zm84.24982394584309,3.120363849846042 c-1.5601819249230218,2.080242566564028 -3.6404244914870474,3.120363849846042 -5.720667058051076,4.680545774769061 c-2.6003032082050352,1.040121283282016 -5.200606416410068,1.5601819249230218 -8.841030907897117,1.5601819249230218 c-2.6003032082050352,0 -4.680545774769061,-0.5200606416410084 -6.7607883413330905,-1.040121283282016 s-4.160485133128056,-1.5601819249230218 -5.720667058051076,-3.120363849846042 c-1.5601819249230218,-1.5601819249230218 -2.6003032082050352,-3.120363849846042 -3.6404244914870474,-4.680545774769061 c-1.040121283282016,-2.080242566564028 -1.5601819249230218,-4.160485133128056 -1.5601819249230218,-6.7607883413330905 c0,-4.680545774769061 1.040121283282016,-7.800909624615102 3.120363849846042,-10.401212832820136 c2.080242566564028,-2.080242566564028 4.680545774769061,-4.160485133128056 7.800909624615102,-5.200606416410068 c3.120363849846042,-1.040121283282016 6.7607883413330905,-1.5601819249230218 10.401212832820136,-2.080242566564028 c3.6404244914870474,0 7.280848982974095,-0.5200606416410084 10.401212832820136,-1.040121283282016 c0,-1.5601819249230218 0,-3.120363849846042 -0.5200606416410084,-4.160485133128056 c-0.5200606416410084,-1.5601819249230218 -1.040121283282016,-2.6003032082050352 -1.5601819249230218,-3.120363849846042 c-0.5200606416410084,-1.040121283282016 -1.5601819249230218,-1.5601819249230218 -3.120363849846042,-2.080242566564028 c-1.5601819249230218,-0.5200606416410084 -3.120363849846042,-0.5200606416410084 -5.200606416410068,-0.5200606416410084 c-3.120363849846042,0 -5.720667058051076,0.5200606416410084 -8.32097026625611,1.5601819249230218 c-2.6003032082050352,1.040121283282016 -5.720667058051076,2.6003032082050352 -8.32097026625611,4.680545774769061 V166.41940532512217 l3.120363849846042,-1.5601819249230218 c1.040121283282016,-0.5200606416410084 2.6003032082050352,-1.040121283282016 4.160485133128056,-1.5601819249230218 c1.5601819249230218,-0.5200606416410084 3.6404244914870474,-1.040121283282016 5.200606416410068,-1.5601819249230218 c2.080242566564028,-0.5200606416410084 4.160485133128056,-0.5200606416410084 6.7607883413330905,-0.5200606416410084 h3.6404244914870474 c1.5601819249230218,0 2.6003032082050352,0.5200606416410084 4.160485133128056,0.5200606416410084 c1.5601819249230218,0.5200606416410084 3.120363849846042,1.040121283282016 4.160485133128056,1.5601819249230218 s2.6003032082050352,2.080242566564028 3.6404244914870474,3.120363849846042 c1.040121283282016,1.5601819249230218 2.080242566564028,3.120363849846042 2.6003032082050352,4.680545774769061 c0.5200606416410084,2.080242566564028 1.040121283282016,4.160485133128056 1.040121283282016,6.7607883413330905 v26.00303208205034 h5.200606416410068 c0.5200606416410084,1.5601819249230218 1.040121283282016,2.6003032082050352 1.040121283282016,4.160485133128056 c0,1.5601819249230218 -0.5200606416410084,2.6003032082050352 -1.040121283282016,4.160485133128056 h-16.12187989087121 V208.0242566564027 zm-0.5200606416410084,-18.722183099076243 l-10.401212832820136,1.040121283282016 c-3.120363849846042,0.5200606416410084 -5.720667058051076,1.040121283282016 -6.7607883413330905,2.6003032082050352 c-1.5601819249230218,1.5601819249230218 -2.080242566564028,3.6404244914870474 -2.080242566564028,6.240727699692082 c0,1.5601819249230218 0.5200606416410084,3.120363849846042 2.080242566564028,4.680545774769061 c1.040121283282016,1.5601819249230218 3.120363849846042,2.080242566564028 5.720667058051076,2.080242566564028 c1.5601819249230218,0 3.120363849846042,0 4.680545774769061,-0.5200606416410084 c1.5601819249230218,-0.5200606416410084 2.6003032082050352,-1.040121283282016 3.6404244914870474,-2.080242566564028 c1.040121283282016,-1.040121283282016 2.080242566564028,-1.5601819249230218 2.6003032082050352,-3.120363849846042 c0.5200606416410084,-1.040121283282016 1.040121283282016,-2.080242566564028 1.040121283282016,-3.6404244914870474 v-7.280848982974095 zm26.523092723691345,15.601819249230203 v-33.80394170666544 H821.6958134067821 c-0.5200606416410084,-1.5601819249230218 -1.040121283282016,-2.6003032082050352 -1.040121283282016,-4.160485133128056 s0,-2.6003032082050352 1.040121283282016,-4.160485133128056 h16.64194053251222 l0.5200606416410084,5.720667058051076 c1.040121283282016,-1.5601819249230218 3.120363849846042,-3.6404244914870474 5.200606416410068,-4.680545774769061 c2.6003032082050352,-1.5601819249230218 5.720667058051076,-2.080242566564028 9.361091549538122,-2.080242566564028 c5.720667058051076,0 9.881152191179128,1.5601819249230218 12.481455399384163,4.680545774769061 c3.120363849846042,3.120363849846042 4.160485133128056,7.800909624615102 4.160485133128056,13.521576682666177 v24.962910798768323 h5.720667058051076 c0.5200606416410084,1.5601819249230218 0.5200606416410084,2.6003032082050352 0.5200606416410084,4.160485133128056 s0,2.6003032082050352 -0.5200606416410084,4.160485133128056 H852.8994519052425 c-0.5200606416410084,-1.5601819249230218 -0.5200606416410084,-2.6003032082050352 -0.5200606416410084,-4.160485133128056 s0,-2.6003032082050352 0.5200606416410084,-4.160485133128056 h5.200606416410068 v-23.922789515486308 c0,-3.120363849846042 -0.5200606416410084,-5.720667058051076 -1.5601819249230218,-7.800909624615102 c-1.040121283282016,-1.5601819249230218 -3.120363849846042,-2.6003032082050352 -6.240727699692082,-2.6003032082050352 c-1.040121283282016,0 -2.080242566564028,0 -3.6404244914870474,0.5200606416410084 c-1.040121283282016,0.5200606416410084 -2.080242566564028,1.040121283282016 -3.120363849846042,2.080242566564028 c-1.040121283282016,1.040121283282016 -1.5601819249230218,2.6003032082050352 -2.6003032082050352,4.160485133128056 c-0.5200606416410084,1.5601819249230218 -1.040121283282016,4.160485133128056 -1.040121283282016,6.7607883413330905 v20.80242566564027 h5.200606416410068 c0.5200606416410084,1.5601819249230218 1.040121283282016,2.6003032082050352 1.040121283282016,4.160485133128056 s-0.5200606416410084,2.6003032082050352 -1.040121283282016,4.160485133128056 H821.6958134067821 c-0.5200606416410084,-1.5601819249230218 -1.040121283282016,-2.6003032082050352 -1.040121283282016,-4.160485133128056 s0,-2.6003032082050352 1.040121283282016,-4.160485133128056 h5.720667058051076 zm56.16654929722874,10.921273474461143 c1.040121283282016,0.5200606416410084 2.6003032082050352,1.5601819249230218 3.6404244914870474,2.080242566564028 c1.5601819249230218,0.5200606416410084 2.6003032082050352,1.040121283282016 4.160485133128056,2.080242566564028 l4.680545774769061,1.5601819249230218 c1.5601819249230218,0.5200606416410084 3.6404244914870474,0.5200606416410084 5.720667058051076,0.5200606416410084 c2.080242566564028,0 3.6404244914870474,0 5.200606416410068,-0.5200606416410084 c1.5601819249230218,-0.5200606416410084 3.120363849846042,-1.040121283282016 4.160485133128056,-2.080242566564028 c1.040121283282016,-1.040121283282016 2.080242566564028,-2.6003032082050352 2.6003032082050352,-4.680545774769061 c0.5200606416410084,-2.080242566564028 1.040121283282016,-4.680545774769061 1.040121283282016,-7.800909624615102 c-1.5601819249230218,2.6003032082050352 -3.6404244914870474,4.160485133128056 -5.720667058051076,5.200606416410068 c-2.080242566564028,1.040121283282016 -4.680545774769061,1.5601819249230218 -7.280848982974095,1.5601819249230218 c-4.160485133128056,0 -7.800909624615102,-1.040121283282016 -10.401212832820136,-2.6003032082050352 s-5.200606416410068,-3.6404244914870474 -6.7607883413330905,-6.240727699692082 c-1.5601819249230218,-2.6003032082050352 -2.6003032082050352,-5.200606416410068 -3.6404244914870474,-8.32097026625611 c-0.5200606416410084,-3.120363849846042 -1.040121283282016,-6.240727699692082 -1.040121283282016,-9.361091549538122 c0,-3.6404244914870474 0.5200606416410084,-7.280848982974095 1.5601819249230218,-10.401212832820136 c1.040121283282016,-3.120363849846042 2.6003032082050352,-5.720667058051076 4.160485133128056,-8.32097026625611 c2.080242566564028,-2.080242566564028 4.160485133128056,-4.160485133128056 6.7607883413330905,-5.200606416410068 c2.6003032082050352,-1.5601819249230218 5.720667058051076,-2.080242566564028 9.361091549538122,-2.080242566564028 c3.120363849846042,0 5.720667058051076,0.5200606416410084 8.32097026625611,2.080242566564028 c2.6003032082050352,1.5601819249230218 4.160485133128056,3.120363849846042 5.200606416410068,5.200606416410068 l0.5200606416410084,-5.720667058051076 h17.16200117415322 c0.5200606416410084,1.5601819249230218 1.040121283282016,2.6003032082050352 1.040121283282016,4.160485133128056 c0,1.5601819249230218 -0.5200606416410084,2.6003032082050352 -1.040121283282016,4.160485133128056 h-5.720667058051076 v34.32400234830644 c0,4.680545774769061 -0.5200606416410084,8.841030907897117 -1.5601819249230218,11.961394757743154 c-1.040121283282016,3.120363849846042 -2.6003032082050352,5.720667058051076 -5.200606416410068,7.800909624615102 c-2.080242566564028,2.080242566564028 -4.680545774769061,3.6404244914870474 -7.800909624615102,4.160485133128056 c-3.120363849846042,1.040121283282016 -6.240727699692082,1.040121283282016 -9.881152191179128,1.040121283282016 c-4.160485133128056,0 -7.800909624615102,-0.5200606416410084 -11.441334116102153,-1.5601819249230218 c-3.6404244914870474,-1.040121283282016 -6.240727699692082,-2.080242566564028 -8.32097026625611,-3.120363849846042 v-9.881152191179128 zm20.80242566564027,-11.961394757743154 c1.040121283282016,0 2.080242566564028,0 3.120363849846042,-0.5200606416410084 c1.040121283282016,-0.5200606416410084 2.6003032082050352,-1.5601819249230218 3.6404244914870474,-2.6003032082050352 c1.040121283282016,-1.040121283282016 2.080242566564028,-2.6003032082050352 3.120363849846042,-5.200606416410068 c1.040121283282016,-2.080242566564028 1.040121283282016,-4.680545774769061 1.040121283282016,-8.32097026625611 c0,-1.5601819249230218 0,-3.120363849846042 -0.5200606416410084,-5.200606416410068 c0,-2.080242566564028 -0.5200606416410084,-3.6404244914870474 -1.5601819249230218,-5.720667058051076 s-2.080242566564028,-3.120363849846042 -3.120363849846042,-4.680545774769061 s-3.6404244914870474,-2.080242566564028 -5.720667058051076,-2.080242566564028 c-2.6003032082050352,0 -4.680545774769061,0.5200606416410084 -6.240727699692082,2.080242566564028 c-1.5601819249230218,1.040121283282016 -2.6003032082050352,2.6003032082050352 -3.6404244914870474,4.680545774769061 c-1.040121283282016,1.5601819249230218 -1.040121283282016,3.6404244914870474 -1.5601819249230218,5.720667058051076 c0,2.080242566564028 -0.5200606416410084,3.6404244914870474 -0.5200606416410084,5.200606416410068 c0,2.080242566564028 0,4.160485133128056 0.5200606416410084,6.240727699692082 c0.5200606416410084,2.080242566564028 1.040121283282016,3.6404244914870474 2.080242566564028,5.200606416410068 c1.040121283282016,1.5601819249230218 2.080242566564028,2.6003032082050352 3.6404244914870474,3.120363849846042 c2.080242566564028,1.5601819249230218 3.6404244914870474,2.080242566564028 5.720667058051076,2.080242566564028 m74.88873239630497,6.240727699692082 c-2.080242566564028,1.040121283282016 -4.680545774769061,2.080242566564028 -7.800909624615102,3.120363849846042 c-3.120363849846042,1.040121283282016 -6.240727699692082,1.5601819249230218 -9.361091549538122,1.5601819249230218 c-4.680545774769061,0 -8.32097026625611,-0.5200606416410084 -11.961394757743154,-2.080242566564028 c-3.120363849846042,-1.5601819249230218 -6.240727699692082,-3.6404244914870474 -8.32097026625611,-6.240727699692082 c-2.080242566564028,-2.6003032082050352 -3.6404244914870474,-5.200606416410068 -4.680545774769061,-8.32097026625611 c-1.040121283282016,-3.120363849846042 -1.5601819249230218,-6.240727699692082 -1.5601819249230218,-9.881152191179128 c0,-3.120363849846042 0.5200606416410084,-6.7607883413330905 1.5601819249230218,-9.881152191179128 s2.080242566564028,-6.240727699692082 4.160485133128056,-8.32097026625611 c2.080242566564028,-2.6003032082050352 4.160485133128056,-4.680545774769061 7.280848982974095,-6.240727699692082 c3.120363849846042,-1.5601819249230218 6.240727699692082,-2.080242566564028 10.401212832820136,-2.080242566564028 s7.800909624615102,0.5200606416410084 10.921273474461143,2.080242566564028 c2.6003032082050352,1.5601819249230218 5.200606416410068,3.6404244914870474 6.7607883413330905,5.720667058051076 c1.5601819249230218,2.6003032082050352 3.120363849846042,5.200606416410068 3.6404244914870474,8.32097026625611 c0.5200606416410084,3.120363849846042 1.040121283282016,6.240727699692082 1.040121283282016,8.841030907897117 v4.680545774769061 h-32.24375978174242 c0,2.080242566564028 0.5200606416410084,3.6404244914870474 1.040121283282016,5.200606416410068 c0.5200606416410084,1.5601819249230218 1.5601819249230218,3.120363849846042 2.6003032082050352,4.160485133128056 c1.040121283282016,1.040121283282016 2.6003032082050352,2.080242566564028 4.160485133128056,3.120363849846042 c1.5601819249230218,0.5200606416410084 3.120363849846042,1.040121283282016 5.200606416410068,1.040121283282016 c3.120363849846042,0 6.240727699692082,-0.5200606416410084 8.841030907897117,-1.5601819249230218 c2.6003032082050352,-1.040121283282016 5.200606416410068,-2.080242566564028 8.32097026625611,-3.6404244914870474 v10.401212832820136 zm-10.401212832820136,-27.043153365332355 c0,-4.160485133128056 -1.040121283282016,-7.280848982974095 -2.6003032082050352,-9.361091549538122 c-1.5601819249230218,-2.080242566564028 -4.160485133128056,-3.120363849846042 -7.280848982974095,-3.120363849846042 c-3.120363849846042,0 -5.200606416410068,1.040121283282016 -6.7607883413330905,3.6404244914870474 c-1.5601819249230218,2.080242566564028 -2.6003032082050352,5.200606416410068 -3.120363849846042,9.361091549538122 h19.762304382358256 zm18.202122457435237,11.961394757743154 c1.040121283282016,-0.5200606416410084 2.6003032082050352,-1.040121283282016 4.160485133128056,-1.040121283282016 h2.080242566564028 c0.5200606416410084,0 1.5601819249230218,0.5200606416410084 2.080242566564028,1.040121283282016 v1.5601819249230218 c0,1.040121283282016 0.5200606416410084,2.080242566564028 1.040121283282016,3.120363849846042 c0.5200606416410084,1.040121283282016 1.5601819249230218,2.080242566564028 3.120363849846042,2.6003032082050352 c1.040121283282016,1.040121283282016 2.6003032082050352,1.5601819249230218 4.160485133128056,2.080242566564028 c1.5601819249230218,0.5200606416410084 3.120363849846042,0.5200606416410084 5.200606416410068,0.5200606416410084 c1.040121283282016,0 2.6003032082050352,0 3.6404244914870474,-0.5200606416410084 c1.040121283282016,0 2.080242566564028,-0.5200606416410084 3.120363849846042,-1.040121283282016 c1.040121283282016,-0.5200606416410084 1.5601819249230218,-1.040121283282016 2.080242566564028,-1.5601819249230218 c0.5200606416410084,-0.5200606416410084 0.5200606416410084,-1.5601819249230218 0.5200606416410084,-2.6003032082050352 s0,-2.080242566564028 -0.5200606416410084,-2.6003032082050352 c-0.5200606416410084,-0.5200606416410084 -1.040121283282016,-1.5601819249230218 -2.080242566564028,-2.080242566564028 c-1.040121283282016,-0.5200606416410084 -2.080242566564028,-1.040121283282016 -3.6404244914870474,-1.5601819249230218 c-1.5601819249230218,-0.5200606416410084 -3.6404244914870474,-1.040121283282016 -6.240727699692082,-1.5601819249230218 c-2.080242566564028,-0.5200606416410084 -3.6404244914870474,-1.040121283282016 -5.720667058051076,-1.5601819249230218 c-2.080242566564028,-0.5200606416410084 -4.160485133128056,-1.5601819249230218 -5.720667058051076,-2.6003032082050352 c-1.5601819249230218,-1.040121283282016 -3.120363849846042,-2.6003032082050352 -4.680545774769061,-4.160485133128056 c-1.040121283282016,-1.5601819249230218 -1.5601819249230218,-3.6404244914870474 -1.5601819249230218,-6.7607883413330905 c0,-3.120363849846042 0.5200606416410084,-5.200606416410068 1.5601819249230218,-7.280848982974095 c1.040121283282016,-2.080242566564028 2.6003032082050352,-3.6404244914870474 4.680545774769061,-4.680545774769061 c2.080242566564028,-1.040121283282016 3.6404244914870474,-2.080242566564028 6.240727699692082,-2.6003032082050352 c2.080242566564028,-0.5200606416410084 4.160485133128056,-1.040121283282016 6.240727699692082,-1.040121283282016 c3.120363849846042,0 5.720667058051076,0.5200606416410084 7.800909624615102,1.5601819249230218 c2.080242566564028,1.040121283282016 3.6404244914870474,2.080242566564028 4.680545774769061,3.120363849846042 v-2.6003032082050352 c0.5200606416410084,-0.5200606416410084 1.5601819249230218,-0.5200606416410084 2.080242566564028,-0.5200606416410084 h2.080242566564028 c1.5601819249230218,0 2.6003032082050352,0.5200606416410084 4.160485133128056,1.040121283282016 v16.12187989087121 c-1.040121283282016,0.5200606416410084 -2.6003032082050352,1.040121283282016 -4.160485133128056,1.040121283282016 c-1.5601819249230218,0 -2.6003032082050352,-0.5200606416410084 -4.160485133128056,-1.040121283282016 v-1.5601819249230218 c0,-2.080242566564028 -1.040121283282016,-4.160485133128056 -2.6003032082050352,-5.720667058051076 c-2.080242566564028,-1.5601819249230218 -4.160485133128056,-2.6003032082050352 -7.800909624615102,-2.6003032082050352 c-3.120363849846042,0 -5.200606416410068,0.5200606416410084 -6.7607883413330905,1.5601819249230218 c-1.5601819249230218,1.040121283282016 -2.080242566564028,2.6003032082050352 -2.080242566564028,4.160485133128056 c0,1.040121283282016 0,1.5601819249230218 0.5200606416410084,2.080242566564028 c0,0.5200606416410084 1.040121283282016,1.040121283282016 1.5601819249230218,1.5601819249230218 c1.040121283282016,0.5200606416410084 2.080242566564028,1.040121283282016 3.6404244914870474,1.5601819249230218 c1.5601819249230218,0.5200606416410084 3.6404244914870474,1.040121283282016 6.7607883413330905,1.5601819249230218 l6.240727699692082,1.5601819249230218 c2.080242566564028,0.5200606416410084 4.160485133128056,1.5601819249230218 5.720667058051076,2.6003032082050352 c1.5601819249230218,1.040121283282016 3.120363849846042,2.6003032082050352 4.160485133128056,4.680545774769061 c1.040121283282016,2.080242566564028 1.5601819249230218,4.680545774769061 1.5601819249230218,7.800909624615102 c0,2.6003032082050352 -0.5200606416410084,4.680545774769061 -1.5601819249230218,6.7607883413330905 c-1.040121283282016,2.080242566564028 -2.6003032082050352,3.6404244914870474 -4.160485133128056,4.680545774769061 c-1.5601819249230218,1.040121283282016 -3.6404244914870474,2.080242566564028 -6.240727699692082,2.6003032082050352 c-2.080242566564028,0.5200606416410084 -4.680545774769061,1.040121283282016 -7.280848982974095,1.040121283282016 c-2.080242566564028,0 -3.6404244914870474,0 -4.680545774769061,-0.5200606416410084 c-1.5601819249230218,0 -2.6003032082050352,-0.5200606416410084 -3.6404244914870474,-1.040121283282016 l-3.120363849846042,-1.5601819249230218 c-1.040121283282016,-0.5200606416410084 -2.080242566564028,-1.040121283282016 -3.120363849846042,-2.080242566564028 v2.6003032082050352 c-0.5200606416410084,0.5200606416410084 -1.5601819249230218,0.5200606416410084 -2.080242566564028,1.040121283282016 h-4.160485133128056 c-0.5200606416410084,0 -1.5601819249230218,-0.5200606416410084 -2.080242566564028,-1.040121283282016 v-16.12187989087121 zm76.44891432122799,9.881152191179128 v-57.206670580510746 h-5.200606416410068 c-0.5200606416410084,-1.5601819249230218 -1.040121283282016,-2.6003032082050352 -1.040121283282016,-4.160485133128056 c0,-1.5601819249230218 0,-2.6003032082050352 1.040121283282016,-4.160485133128056 h17.68206181579423 v65.52764084676686 h5.200606416410068 c0.5200606416410084,1.5601819249230218 0.5200606416410084,2.6003032082050352 0.5200606416410084,4.160485133128056 s0,2.6003032082050352 -0.5200606416410084,4.160485133128056 h-23.402728873845305 c-0.5200606416410084,-1.5601819249230218 -1.040121283282016,-2.6003032082050352 -1.040121283282016,-4.160485133128056 s0,-2.6003032082050352 1.040121283282016,-4.160485133128056 h5.720667058051076 zm28.08327464861437,0 v-33.80394170666544 h-5.200606416410068 c-0.5200606416410084,-1.5601819249230218 -1.040121283282016,-2.6003032082050352 -1.040121283282016,-4.160485133128056 s0.5200606416410084,-2.6003032082050352 1.040121283282016,-4.160485133128056 h17.68206181579423 v42.124911972921545 h5.200606416410068 c0.5200606416410084,1.5601819249230218 1.040121283282016,2.6003032082050352 1.040121283282016,4.160485133128056 c0,1.5601819249230218 -0.5200606416410084,2.6003032082050352 -1.040121283282016,4.160485133128056 h-23.402728873845305 c-0.5200606416410084,-1.5601819249230218 -1.040121283282016,-2.6003032082050352 -1.040121283282016,-4.160485133128056 c0,-1.5601819249230218 0.5200606416410084,-2.6003032082050352 1.040121283282016,-4.160485133128056 h5.720667058051076 zm5.200606416410068,-49.405760955895644 c-2.080242566564028,0 -3.6404244914870474,-0.5200606416410084 -5.200606416410068,-2.080242566564028 c-1.5601819249230218,-1.5601819249230218 -2.080242566564028,-3.120363849846042 -2.080242566564028,-5.720667058051076 c0,-2.080242566564028 0.5200606416410084,-4.160485133128056 2.080242566564028,-5.720667058051076 c1.5601819249230218,-1.5601819249230218 3.120363849846042,-2.080242566564028 5.200606416410068,-2.080242566564028 s3.6404244914870474,0.5200606416410084 5.200606416410068,2.080242566564028 c1.5601819249230218,1.5601819249230218 2.080242566564028,3.120363849846042 2.080242566564028,5.720667058051076 c0,2.080242566564028 -0.5200606416410084,4.160485133128056 -2.080242566564028,5.720667058051076 c-1.5601819249230218,1.5601819249230218 -3.120363849846042,2.080242566564028 -5.200606416410068,2.080242566564028 m17.16200117415322,15.601819249230203 h-4.160485133128056 c-0.5200606416410084,-1.5601819249230218 -0.5200606416410084,-2.6003032082050352 -0.5200606416410084,-4.160485133128056 c0,-1.5601819249230218 0,-2.6003032082050352 0.5200606416410084,-4.160485133128056 h21.842546948922287 c0.5200606416410084,1.5601819249230218 1.040121283282016,2.6003032082050352 1.040121283282016,4.160485133128056 s-0.5200606416410084,2.6003032082050352 -1.040121283282016,4.160485133128056 h-5.200606416410068 l9.881152191179128,30.163517215178395 l9.881152191179128,-30.163517215178395 h-5.200606416410068 c-0.5200606416410084,-1.5601819249230218 -0.5200606416410084,-2.6003032082050352 -0.5200606416410084,-4.160485133128056 s0,-2.6003032082050352 0.5200606416410084,-4.160485133128056 h20.80242566564027 c0.5200606416410084,1.5601819249230218 0.5200606416410084,2.6003032082050352 0.5200606416410084,4.160485133128056 s0,2.6003032082050352 -0.5200606416410084,4.160485133128056 h-4.160485133128056 l-15.601819249230203,42.64497261456255 h-12.481455399384163 l-15.601819249230203,-42.64497261456255 zm92.5707942120992,39.00454812307551 c-2.080242566564028,1.040121283282016 -4.680545774769061,2.080242566564028 -7.800909624615102,3.120363849846042 c-3.120363849846042,1.040121283282016 -6.240727699692082,1.5601819249230218 -9.361091549538122,1.5601819249230218 c-4.680545774769061,0 -8.32097026625611,-0.5200606416410084 -11.961394757743154,-2.080242566564028 c-3.120363849846042,-1.5601819249230218 -6.240727699692082,-3.6404244914870474 -8.32097026625611,-6.240727699692082 c-2.080242566564028,-2.6003032082050352 -3.6404244914870474,-5.200606416410068 -4.680545774769061,-8.32097026625611 c-1.040121283282016,-3.120363849846042 -1.5601819249230218,-6.240727699692082 -1.5601819249230218,-9.881152191179128 c0,-3.120363849846042 0.5200606416410084,-6.7607883413330905 1.5601819249230218,-9.881152191179128 c1.040121283282016,-3.120363849846042 2.080242566564028,-6.240727699692082 4.160485133128056,-8.32097026625611 c2.080242566564028,-2.6003032082050352 4.160485133128056,-4.680545774769061 7.280848982974095,-6.240727699692082 c3.120363849846042,-1.5601819249230218 6.240727699692082,-2.080242566564028 10.401212832820136,-2.080242566564028 s7.800909624615102,0.5200606416410084 10.921273474461143,2.080242566564028 c2.6003032082050352,1.5601819249230218 5.200606416410068,3.6404244914870474 6.7607883413330905,5.720667058051076 c1.5601819249230218,2.6003032082050352 3.120363849846042,5.200606416410068 3.6404244914870474,8.32097026625611 c0.5200606416410084,3.120363849846042 1.040121283282016,6.240727699692082 1.040121283282016,8.841030907897117 v4.680545774769061 h-32.24375978174242 c0,2.080242566564028 0.5200606416410084,3.6404244914870474 1.040121283282016,5.200606416410068 c0.5200606416410084,1.5601819249230218 1.5601819249230218,3.120363849846042 2.6003032082050352,4.160485133128056 c1.040121283282016,1.040121283282016 2.6003032082050352,2.080242566564028 4.160485133128056,3.120363849846042 c1.5601819249230218,0.5200606416410084 3.120363849846042,1.040121283282016 5.200606416410068,1.040121283282016 c3.120363849846042,0 6.240727699692082,-0.5200606416410084 8.841030907897117,-1.5601819249230218 c2.6003032082050352,-1.040121283282016 5.200606416410068,-2.080242566564028 8.32097026625611,-3.6404244914870474 v10.401212832820136 zm-10.921273474461143,-27.043153365332355 c0,-4.160485133128056 -1.040121283282016,-7.280848982974095 -2.6003032082050352,-9.361091549538122 c-1.5601819249230218,-2.080242566564028 -4.160485133128056,-3.120363849846042 -7.280848982974095,-3.120363849846042 c-3.120363849846042,0 -5.200606416410068,1.040121283282016 -6.7607883413330905,3.6404244914870474 c-1.5601819249230218,2.080242566564028 -2.6003032082050352,5.200606416410068 -3.120363849846042,9.361091549538122 h19.762304382358256 zm18.722183099076243,11.961394757743154 c1.040121283282016,-0.5200606416410084 2.6003032082050352,-1.040121283282016 4.160485133128056,-1.040121283282016 h2.080242566564028 c0.5200606416410084,0 1.5601819249230218,0.5200606416410084 2.080242566564028,1.040121283282016 v1.5601819249230218 c0,1.040121283282016 0.5200606416410084,2.080242566564028 1.040121283282016,3.120363849846042 c0.5200606416410084,1.040121283282016 1.5601819249230218,2.080242566564028 3.120363849846042,2.6003032082050352 c1.040121283282016,1.040121283282016 2.6003032082050352,1.5601819249230218 4.160485133128056,2.080242566564028 c1.5601819249230218,0.5200606416410084 3.120363849846042,0.5200606416410084 5.200606416410068,0.5200606416410084 c1.040121283282016,0 2.6003032082050352,0 3.6404244914870474,-0.5200606416410084 c1.040121283282016,0 2.080242566564028,-0.5200606416410084 3.120363849846042,-1.040121283282016 c1.040121283282016,-0.5200606416410084 1.5601819249230218,-1.040121283282016 2.080242566564028,-1.5601819249230218 c0.5200606416410084,-0.5200606416410084 0.5200606416410084,-1.5601819249230218 0.5200606416410084,-2.6003032082050352 s0,-2.080242566564028 -0.5200606416410084,-2.6003032082050352 c-0.5200606416410084,-0.5200606416410084 -1.040121283282016,-1.5601819249230218 -2.080242566564028,-2.080242566564028 c-1.040121283282016,-0.5200606416410084 -2.080242566564028,-1.040121283282016 -3.6404244914870474,-1.5601819249230218 c-1.5601819249230218,-0.5200606416410084 -3.6404244914870474,-1.040121283282016 -6.240727699692082,-1.5601819249230218 c-2.080242566564028,-0.5200606416410084 -3.6404244914870474,-1.040121283282016 -5.720667058051076,-1.5601819249230218 c-2.080242566564028,-0.5200606416410084 -4.160485133128056,-1.5601819249230218 -5.720667058051076,-2.6003032082050352 c-1.5601819249230218,-1.040121283282016 -3.120363849846042,-2.6003032082050352 -4.680545774769061,-4.160485133128056 c-1.040121283282016,-1.5601819249230218 -1.5601819249230218,-3.6404244914870474 -1.5601819249230218,-6.7607883413330905 c0,-3.120363849846042 0.5200606416410084,-5.200606416410068 1.5601819249230218,-7.280848982974095 c1.040121283282016,-2.080242566564028 2.6003032082050352,-3.6404244914870474 4.680545774769061,-4.680545774769061 c2.080242566564028,-1.040121283282016 3.6404244914870474,-2.080242566564028 6.240727699692082,-2.6003032082050352 c2.080242566564028,-0.5200606416410084 4.160485133128056,-1.040121283282016 6.240727699692082,-1.040121283282016 c3.120363849846042,0 5.720667058051076,0.5200606416410084 7.800909624615102,1.5601819249230218 c2.080242566564028,1.040121283282016 3.6404244914870474,2.080242566564028 4.680545774769061,3.120363849846042 v-2.6003032082050352 c1.040121283282016,-0.5200606416410084 1.5601819249230218,-0.5200606416410084 2.080242566564028,-0.5200606416410084 h2.080242566564028 c1.5601819249230218,0 2.6003032082050352,0.5200606416410084 4.160485133128056,1.040121283282016 v16.12187989087121 c-1.040121283282016,0.5200606416410084 -2.6003032082050352,1.040121283282016 -4.160485133128056,1.040121283282016 c-1.5601819249230218,0 -2.6003032082050352,-0.5200606416410084 -4.160485133128056,-1.040121283282016 v-1.5601819249230218 c0,-2.080242566564028 -1.040121283282016,-4.160485133128056 -2.6003032082050352,-5.720667058051076 c-2.080242566564028,-1.5601819249230218 -4.160485133128056,-2.6003032082050352 -7.800909624615102,-2.6003032082050352 c-3.120363849846042,0 -5.200606416410068,0.5200606416410084 -6.7607883413330905,1.5601819249230218 c-1.5601819249230218,1.040121283282016 -2.080242566564028,2.6003032082050352 -2.080242566564028,4.160485133128056 c0,1.040121283282016 0,1.5601819249230218 0.5200606416410084,2.080242566564028 c0,0.5200606416410084 1.040121283282016,1.040121283282016 1.5601819249230218,1.5601819249230218 c1.040121283282016,0.5200606416410084 2.080242566564028,1.040121283282016 3.6404244914870474,1.5601819249230218 c1.5601819249230218,0.5200606416410084 3.6404244914870474,1.040121283282016 6.7607883413330905,1.5601819249230218 l6.240727699692082,1.5601819249230218 c2.080242566564028,0.5200606416410084 4.160485133128056,1.5601819249230218 5.720667058051076,2.6003032082050352 c1.5601819249230218,1.040121283282016 3.120363849846042,2.6003032082050352 4.160485133128056,4.680545774769061 c1.040121283282016,2.080242566564028 1.5601819249230218,4.680545774769061 1.5601819249230218,7.800909624615102 c0,2.6003032082050352 -0.5200606416410084,4.680545774769061 -1.5601819249230218,6.7607883413330905 c-1.040121283282016,2.080242566564028 -2.6003032082050352,3.6404244914870474 -4.160485133128056,4.680545774769061 c-1.5601819249230218,1.040121283282016 -3.6404244914870474,2.080242566564028 -6.240727699692082,2.6003032082050352 c-2.080242566564028,0.5200606416410084 -4.680545774769061,1.040121283282016 -7.280848982974095,1.040121283282016 c-2.080242566564028,0 -3.6404244914870474,0 -4.680545774769061,-0.5200606416410084 c-1.5601819249230218,0 -2.6003032082050352,-0.5200606416410084 -3.6404244914870474,-1.040121283282016 l-3.120363849846042,-1.5601819249230218 c-1.040121283282016,-0.5200606416410084 -2.080242566564028,-1.040121283282016 -3.120363849846042,-2.080242566564028 v2.6003032082050352 c-0.5200606416410084,0.5200606416410084 -1.5601819249230218,0.5200606416410084 -2.080242566564028,1.040121283282016 h-4.160485133128056 c-0.5200606416410084,0 -1.5601819249230218,-0.5200606416410084 -2.080242566564028,-1.040121283282016 v-16.12187989087121 z" id="svg_2" class=""/></g></g></svg>